<svg width="176" height="40" viewBox="0 0 176 40" fill="none" xmlns="http://www.w3.org/2000/svg">
  <defs>
    <linearGradient id="veltioGrad" x1="4" y1="4" x2="36" y2="36" gradientUnits="userSpaceOnUse">
      <stop stop-color="#1B6DFF"/>
      <stop offset="1" stop-color="#00B8B0"/>
    </linearGradient>
  </defs>
  <rect x="2" y="2" width="36" height="36" rx="10" fill="#0B1320"/>
  <path d="M11 12L20 28L29 12" stroke="url(#veltioGrad)" stroke-width="3.2" stroke-linecap="round" stroke-linejoin="round"/>
  <circle cx="20" cy="20" r="2.4" fill="url(#veltioGrad)"/>
  <g fill="#0B1320">
    <path d="M50.4 28L44.6 12.8H48.4L52.4 24.2L56.4 12.8H60.1L54.3 28H50.4Z"/>
    <path d="M61.8 28V12.8H72.8V16H65.4V18.8H72.2V21.9H65.4V24.8H73.1V28H61.8Z"/>
    <path d="M75.7 28V12.8H79.3V24.8H86.5V28H75.7Z"/>
    <path d="M91.3 28V16H86.8V12.8H99.4V16H94.9V28H91.3Z"/>
    <path d="M101.2 28V12.8H104.8V28H101.2Z"/>
    <path d="M115.2 28.3C110.5 28.3 107.2 25 107.2 20.4C107.2 15.8 110.5 12.5 115.2 12.5C119.8 12.5 123.1 15.8 123.1 20.4C123.1 25 119.8 28.3 115.2 28.3ZM115.2 24.9C117.7 24.9 119.4 23.1 119.4 20.4C119.4 17.7 117.7 15.9 115.2 15.9C112.6 15.9 110.9 17.7 110.9 20.4C110.9 23.1 112.6 24.9 115.2 24.9Z"/>
  </g>
</svg>
